<svg width="266" height="111" viewBox="0 0 266 111" xmlns="http://www.w3.org/2000/svg"><title>cm_logo_invert</title><g fill="none" fill-rule="evenodd"><path d="M27.945 49.395c-1.938.893-5.546 1.605-9.64 1.605C7.124 51 0 44.174 0 33.336 0 23.246 6.922 15 19.788 15c2.847 0 5.965.513 8.212 1.36l-1.676 7.97c-1.3-.576-3.187-1.098-6.022-1.098-5.688 0-9.338 4.027-9.296 9.672 0 6.338 4.265 9.7 9.472 9.7 2.57 0 4.545-.451 6.198-1.122l1.269 7.913zM34 0h10.823v19.681h.141c1.132-1.509 2.517-2.656 4.232-3.558 1.604-.864 3.622-1.368 5.626-1.368 6.9 0 12.178 4.742 12.178 15.135V50H56.177V31.065c0-4.537-1.574-7.639-5.583-7.639-2.884 0-4.652 1.827-5.422 3.785-.272.643-.35 1.566-.35 2.342V50H34V0zm40.275 27.053c0-5.025-.089-8.335-.275-11.284h9.012l.382 6.337h.259C85.383 17.097 89.49 15 92.757 15c.97 0 1.463.025 2.243.199v10.006a12.818 12.818 0 0 0-2.836-.297c-3.853 0-6.485 2.074-7.19 5.404-.132.677-.195 1.506-.195 2.369V50H74.275V27.053zM101.294 50h10.412V15.813h-10.412V50zM112 6.321c.014 2.96-2.126 5.31-5.589 5.31-3.29 0-5.424-2.35-5.41-5.31C100.986 3.285 103.167 1 106.503 1c3.358 0 5.455 2.274 5.496 5.321zm7.937 34.597c1.947 1.2 6.056 2.565 9.169 2.565 3.228 0 4.607-1.092 4.607-2.849 0-1.786-1.095-2.65-5.046-3.987-7.153-2.358-9.846-6.259-9.803-10.307 0-6.476 5.45-11.34 13.985-11.34 4.024 0 7.583.947 9.686 2.011l-1.861 7.383c-1.546-.814-4.543-1.946-7.452-1.946-2.61 0-4.103 1.043-4.103 2.778 0 1.651 1.363 2.523 5.578 3.981 6.526 2.222 9.26 5.588 9.303 10.615C144 46.257 138.993 51 129.137 51c-4.484 0-8.514-1.018-11.137-2.426l1.937-7.656zM162.868 6v9.822H177v7.898h-14.132v12.477c0 4.153 1.019 6.068 4.173 6.068 1.365 0 2.417-.146 3.144-.32l.087 8.134c-1.367.5-3.892.921-6.854.921-3.42 0-6.273-1.205-7.972-2.99-1.966-2.039-2.925-5.315-2.925-10.206V23.72H148v-7.898h4.52v-7.4L162.869 6z" fill="#FFF"/><path d="M176.294 50h10.412V15.813h-10.412V50zM187 6.321c.014 2.96-2.126 5.31-5.59 5.31-3.29 0-5.423-2.35-5.41-5.31C175.987 3.285 178.168 1 181.503 1c3.36 0 5.456 2.274 5.497 5.321zm27.224 27.613c-5.55-.031-9.84 1.327-9.84 5.43 0 2.773 1.789 4.124 4.188 4.124 2.58 0 4.763-1.75 5.456-3.958.16-.556.196-1.22.196-1.829v-3.767zm1.279 16.292l-.623-3.423h-.224c-2.213 2.742-5.675 4.197-9.689 4.197C198.059 51 194 45.964 194 40.46c0-8.974 7.906-13.23 19.91-13.213v-.44c0-1.83-.97-4.447-6.212-4.437-3.46 0-7.094 1.195-9.352 2.573l-1.94-6.856C198.767 16.715 203.392 15 209.59 15c11.295 0 14.868 6.778 14.868 14.869v12.013c0 3.287.172 6.41.541 8.344h-9.497zm17.777-23.522c0-4.263-.133-7.867-.28-10.934h9.293l.495 4.742h.225c1.39-2.203 4.898-5.512 10.65-5.512C260.704 15 266 19.663 266 29.739V50h-10.73V31.029c0-4.41-1.586-7.43-5.452-7.43-2.947 0-4.691 2.052-5.434 4.02-.273.665-.373 1.678-.373 2.63V50h-10.73V26.704zm-82.57 51.001c-.222-3.89-.479-8.616-.452-12.076h-.117a180.747 180.747 0 0 1-3.576 10.615l-5.015 13.582h-2.772l-4.629-13.334c-1.352-3.956-2.456-7.548-3.25-10.863h-.101c-.099 3.489-.282 8.15-.556 12.352L129.484 90H126l1.976-28h4.687l4.839 13.553c1.17 3.428 2.123 6.512 2.86 9.434h.111c.746-2.836 1.739-5.923 3.006-9.43L148.547 62h4.693L155 90h-3.607l-.683-12.295zM162 90h4V62h-4zm11 0V62h3.969l8.949 14.152c2.04 3.284 3.665 6.227 4.985 9.117l.092-.043c-.327-3.738-.393-7.152-.393-11.491V62H194v28h-3.666l-8.88-14.193c-1.925-3.138-3.803-6.329-5.198-9.374l-.122.043c.214 3.549.263 6.922.263 11.55V90H173zm49-.561c-1.624.62-4.843 1.561-8.618 1.561-4.252 0-7.757-1.09-10.483-3.756-2.416-2.36-3.905-6.132-3.899-10.557.012-8.48 5.762-14.687 15.155-14.687 3.24 0 5.808.723 7.012 1.304l-.904 2.994c-1.494-.688-3.364-1.216-6.193-1.216-6.8 0-11.26 4.294-11.26 11.414 0 7.204 4.261 11.47 10.821 11.47 2.367 0 3.975-.338 4.81-.766v-8.468h-5.673v-2.939H222V89.44zM229 62h3.728v24.948H245V90h-16zm35.695 14.873h-11.009v10.114H266V90h-16V62h15.351v3.012h-11.665v8.868h11.01z" fill="#FFF"/><path d="M48.656 74.495c-3.645-.158-8.422.321-13.168 1.187-11.131 2.03-21.745 5.664-31.995 10.427-.295.138-.815.33-.815.517 0 .335.539.599.9.766 4.11 1.888 8.274 3.633 12.543 5.128 12.826 4.494 25.912 7.099 39.6 6.157 8.702-.6 17.266-1.838 25.632-4.328 5.774-1.719 11.272-4.12 16.6-6.953.818-.435 1.078-.435 1.163-.9.058-.313-.692-.65-1.108-.887-4.015-2.285-8.234-4.136-12.6-5.61-11.534-3.897-23.432-5.479-36.752-5.504zM119.904 111c-1.867-4.937-4.698-9.305-7.91-13.432-2.477-3.185-5.327-5.995-8.677-8.276-.657-.449-1.152-.513-1.845-.105-8.615 5.088-17.61 9.373-27.01 12.786-6.787 2.465-13.724 4.364-20.915 5.142-5.798.627-11.567.136-17.272-.965-13.653-2.637-25.552-8.724-35.597-18.44-.895-.865-.915-1.41.008-2.246 6.09-5.518 12.825-10.022 20.315-13.399 4.883-2.2 9.926-3.862 15.169-4.888 7.295-1.43 14.59-1.586 21.952-.31 10.455 1.813 20.303 5.396 29.896 9.818 4.611 2.126 9.102 4.477 13.445 7.107.703.426 1.228.33 1.86-.1 3.041-2.07 5.803-4.484 8.524-6.951 1.005-.912 1.09-.87 1.54.481.324.974.623 1.965 1.056 2.89.355.756.212 1.15-.508 1.527-2.568 1.345-5.112 2.738-7.667 4.105-1.311.702-1.32.788-.097 1.627 6.892 4.736 13.783 9.474 20.674 14.212 1.488 1.022 1.493 1.072.276 2.356-2.233 2.357-4.47 4.708-6.705 7.061h-.512z" fill="#FFAD0C"/></g></svg>