<svg width="109" height="80" viewBox="0 0 109 80" xmlns="http://www.w3.org/2000/svg" xmlns:xlink="http://www.w3.org/1999/xlink"><title>01</title><defs><path id="a" d="M0 .074h108.286v79.897H0z"/></defs><g fill="none" fill-rule="evenodd"><path d="M40.247 42.511V26.998h-3.875v15.136c0 3.754-1.697 5.571-4.508 5.571-2.451 0-4.08-1.165-5.091-2.623l-2.589 2.658c1.286 1.697 3.48 3.685 7.697 3.685 4.766 0 8.366-3.154 8.366-8.914m10.954-4.988c2.949 0 4.954 2.262 4.954 5.262 0 3-2.005 5.263-4.954 5.263-3.086 0-4.954-2.383-4.954-5.263s1.868-5.262 4.954-5.262zm-.429-3.377c-4.593 0-8.21 3.617-8.21 8.64 0 5.022 3.617 8.639 8.21 8.639 2.349 0 4.012-.943 5.16-2.4v1.971h3.583V26.312h-3.583v10.25c-1.148-1.456-2.811-2.416-5.16-2.416zm19.423 3.377c2.948 0 4.954 2.262 4.954 5.262 0 3-2.006 5.263-4.954 5.263-3.085 0-4.954-2.383-4.954-5.263s1.869-5.262 4.954-5.262zm8.314 13.473V34.574h-3.583v1.989c-1.148-1.457-2.81-2.417-5.16-2.417-4.594 0-8.21 3.617-8.21 8.64 0 5.022 3.616 8.639 8.21 8.639 2.35 0 4.012-.943 5.16-2.4v1.971h3.583zm2.469-5.948c0 4.372 2.177 6.377 5.897 6.377 2.074 0 3.72-.737 5.04-1.628l-1.423-2.863c-.977.617-2.194 1.114-3.309 1.114-1.44 0-2.605-.874-2.605-3.068v-7.15h6.291v-3.257h-6.291v-4.971h-3.6v15.445m19.474-7.713c2.28 0 3.771 1.492 4.165 4.046h-8.52c.36-2.4 1.8-4.046 4.355-4.046zm.068-3.188c-4.834 0-8.176 3.497-8.176 8.64 0 5.21 3.462 8.639 8.4 8.639 2.485 0 4.747-.6 6.753-2.314l-1.783-2.554c-1.37 1.097-3.102 1.731-4.748 1.731-2.314 0-4.423-1.234-4.886-4.183h12.137c.052-.411.069-.874.069-1.337 0-5.125-3.189-8.622-7.766-8.622z" fill="#FFF"/><mask id="b" fill="#fff"><use xlink:href="#a"/></mask><path d="M.333 57.037l8.12-14.085c.95-1.646 3.326-1.646 4.275 0l8.12 14.085c.948 1.644-.24 3.699-2.138 3.699H2.47c-1.898 0-3.085-2.055-2.137-3.699m21.897-41.67l8.107-14.058c.95-1.646 3.324-1.646 4.273 0l8.108 14.058c.949 1.644-.238 3.698-2.137 3.698H24.366c-1.898 0-3.085-2.054-2.136-3.698m-19.645 4.48h16.24c1.898 0 3.085 2.054 2.137 3.699l-8.12 14.084c-.95 1.647-3.325 1.647-4.274 0L.448 23.546C-.5 21.9.686 19.847 2.585 19.847" fill="#21B8F8" mask="url(#b)"/><path d="M32.457 80c-.584 0-1.128-.24-1.533-.678l-7.705-8.297c-2.282-2.374-2.282-6.252.011-8.634a5.798 5.798 0 0 1 8.415 0l.03.032.782.986.78-.986.031-.032a5.8 5.8 0 0 1 8.415 0c2.293 2.382 2.293 6.26 0 8.646l-7.695 8.286a2.07 2.07 0 0 1-1.531.677" fill="#F7735D" mask="url(#b)"/></g></svg>